<?xml version="1.0" encoding="utf-8"?>
<!-- Generator: Adobe Illustrator 16.0.0, SVG Export Plug-In . SVG Version: 6.00 Build 0)  -->
<!DOCTYPE svg PUBLIC "-//W3C//DTD SVG 1.1//EN" "http://www.w3.org/Graphics/SVG/1.1/DTD/svg11.dtd">
<svg version="1.1" id="Layer_1" xmlns="http://www.w3.org/2000/svg" xmlns:xlink="http://www.w3.org/1999/xlink" x="0px" y="0px"
	 width="982px" height="197px" viewBox="0 0 982 197" enable-background="new 0 0 982 197" xml:space="preserve">
<g>
	<path fill="none" d="M-285,1802c0-682.667,0-1365.333,0-2048c512,0,1024,0,1536,0c0,682.667,0,1365.333,0,2048
		C739,1802,227,1802-285,1802z M15.605,149.518c11.605,8.036,23.251,13.164,35.46,17.024c26.304,8.316,53.434,11.917,80.831,14.099
		c28.037,2.231,55.786,0.421,83.427-4.593c36.085-6.544,71.126-17.044,105.932-28.228c46.073-14.804,91.769-30.778,137.788-45.754
		C562.249,68.481,667.475,44.391,775.887,35.43c23.41-1.935,46.781-3.378,70.223-0.894c24.116,2.557,47.53,8.101,69.849,17.604
		c10.348,4.405,20.213,9.942,30.297,14.967c-11.173-7.489-22.457-14.888-34.502-20.715c-32.905-15.919-67.948-23.967-104.36-25.868
		c-30.277-1.581-60.601-1.979-90.825,0.848c-27.939,2.612-56.008,4.725-83.668,9.219c-39.486,6.416-78.938,13.571-117.897,22.602
		c-85.079,19.721-168.412,45.938-251.669,72.034c-59.65,18.698-119.801,31.636-182.426,31.884
		C59.251,157.195,37.679,156.394,15.605,149.518z"/>
	<path fill-rule="evenodd" clip-rule="evenodd" d="M15.605,149.518c22.074,6.876,43.646,7.678,65.302,7.592
		c62.625-0.248,122.775-13.186,182.426-31.884c83.257-26.097,166.59-52.313,251.669-72.034
		c38.959-9.03,78.411-16.186,117.897-22.602c27.66-4.494,55.729-6.606,83.668-9.219c30.225-2.826,60.548-2.429,90.825-0.848
		c36.412,1.901,71.455,9.949,104.36,25.868c12.045,5.827,23.329,13.226,34.502,20.715c-10.084-5.024-19.949-10.562-30.297-14.967
		c-22.318-9.503-45.732-15.047-69.849-17.604c-23.441-2.484-46.812-1.041-70.223,0.894
		c-108.412,8.961-213.638,33.052-316.844,66.637c-46.02,14.976-91.715,30.95-137.788,45.754
		c-34.806,11.184-69.847,21.684-105.932,28.228c-27.641,5.014-55.39,6.824-83.427,4.593c-27.397-2.182-54.527-5.782-80.831-14.099
		C38.856,162.682,27.21,157.554,15.605,149.518z"/>
</g>
</svg>
